<mxfile host="app.diagrams.net" agent="Mozilla/5.0 (X11; Linux x86_64) AppleWebKit/537.36 (KHTML, like Gecko) Chrome/134.0.0.0 Safari/537.36 Edg/134.0.0.0" version="26.1.1">
  <diagram name="Page-1" id="_Wa0WihGEojaqUth0OZd">
    <mxGraphModel>
      <root>
        <mxCell id="0" />
        <mxCell id="1" parent="0" />
        <mxCell id="2" value="Agent" style="whiteSpace=wrap;strokeWidth=2;" vertex="1" parent="1">
          <mxGeometry x="16" y="245" width="396" height="309" as="geometry" />
        </mxCell>
        <mxCell id="3" value="Environment" style="whiteSpace=wrap;strokeWidth=2;" vertex="1" parent="1">
          <mxGeometry x="8" y="8" width="387" height="166" as="geometry" />
        </mxCell>
        <mxCell id="4" value="State update" style="ellipse;shape=doubleEllipse;aspect=fixed;strokeWidth=2;whiteSpace=wrap;" vertex="1" parent="1">
          <mxGeometry x="61" y="33" width="116" height="116" as="geometry" />
        </mxCell>
        <mxCell id="5" value="Reward" style="ellipse;shape=doubleEllipse;aspect=fixed;strokeWidth=2;whiteSpace=wrap;" vertex="1" parent="1">
          <mxGeometry x="280" y="51" width="80" height="80" as="geometry" />
        </mxCell>
        <mxCell id="6" value="Perception" style="strokeWidth=2;shape=process;whiteSpace=wrap;size=0.04;" vertex="1" parent="1">
          <mxGeometry x="119" y="270" width="108" height="39" as="geometry" />
        </mxCell>
        <mxCell id="7" value="Action selection" style="strokeWidth=2;shape=process;whiteSpace=wrap;size=0.04;" vertex="1" parent="1">
          <mxGeometry x="175" y="380" width="143" height="39" as="geometry" />
        </mxCell>
        <mxCell id="8" value="Action" style="strokeWidth=2;shape=process;whiteSpace=wrap;size=0.04;" vertex="1" parent="1">
          <mxGeometry x="155" y="490" width="75" height="39" as="geometry" />
        </mxCell>
        <mxCell id="9" value="Reward" style="strokeWidth=2;shape=process;whiteSpace=wrap;size=0.04;" vertex="1" parent="1">
          <mxGeometry x="277" y="270" width="86" height="39" as="geometry" />
        </mxCell>
        <mxCell id="10" value="Observation" style="curved=1;startArrow=none;endArrow=block;exitX=0.49;exitY=0.99;entryX=0.32;entryY=-0.01;" edge="1" parent="1" source="6" target="7">
          <mxGeometry relative="1" as="geometry">
            <Array as="points">
              <mxPoint x="172" y="344" />
            </Array>
          </mxGeometry>
        </mxCell>
        <mxCell id="11" value="Policy" style="curved=1;startArrow=none;endArrow=block;exitX=0.5;exitY=0.99;entryX=0.76;entryY=-0.01;" edge="1" parent="1" source="7" target="8">
          <mxGeometry relative="1" as="geometry">
            <Array as="points">
              <mxPoint x="246" y="454" />
            </Array>
          </mxGeometry>
        </mxCell>
        <mxCell id="12" value="" style="curved=1;startArrow=none;endArrow=block;strokeWidth=3;exitX=0.82;exitY=1;entryX=0.49;entryY=-0.01;" edge="1" parent="1" source="4" target="6">
          <mxGeometry relative="1" as="geometry">
            <Array as="points">
              <mxPoint x="172" y="174" />
            </Array>
          </mxGeometry>
        </mxCell>
        <mxCell id="13" value="Received" style="curved=1;startArrow=none;endArrow=block;exitX=0.5;exitY=1;entryX=0.5;entryY=-0.01;" edge="1" parent="1" source="5" target="9">
          <mxGeometry relative="1" as="geometry">
            <Array as="points" />
          </mxGeometry>
        </mxCell>
        <mxCell id="14" value="" style="curved=1;startArrow=none;endArrow=block;exitX=0.5;exitY=0.99;entryX=0.68;entryY=-0.01;" edge="1" parent="1" source="9" target="7">
          <mxGeometry relative="1" as="geometry">
            <Array as="points">
              <mxPoint x="320" y="344" />
            </Array>
          </mxGeometry>
        </mxCell>
        <mxCell id="15" value="Action" style="curved=1;startArrow=none;endArrow=block;" edge="1" parent="1" source="8" target="3">
          <mxGeometry relative="1" as="geometry">
            <Array as="points" />
          </mxGeometry>
        </mxCell>
      </root>
    </mxGraphModel>
  </diagram>
</mxfile>
